<svg xmlns="http://www.w3.org/2000/svg" viewBox="0 0 100 100" role="img" aria-label="S.D. Valdoviño">
  <defs>
    <clipPath id="shield">
      <path d="M50 4 L92 22 L86 64 Q86 80 50 96 Q14 80 14 64 L8 22 Z"/>
    </clipPath>
  </defs>
  <path d="M50 4 L92 22 L86 64 Q86 80 50 96 Q14 80 14 64 L8 22 Z" fill="#E85D04"/>
  <g clip-path="url(#shield)">
    <path d="M-10 60 Q25 50 50 60 T120 58 L120 110 L-10 110 Z" fill="#FFFFFF" opacity="0.18"/>
    <path d="M-10 72 Q20 64 50 72 T120 70 L120 110 L-10 110 Z" fill="#FFFFFF" opacity="0.12"/>
  </g>
  <text x="50" y="48" text-anchor="middle" font-family="Impact, 'Arial Black', sans-serif" font-size="26" font-weight="900" fill="#FFFFFF" letter-spacing="1">SDV</text>
  <text x="50" y="64" text-anchor="middle" font-family="Arial, sans-serif" font-size="7" font-weight="700" fill="#FFFFFF" letter-spacing="1.5">VALDOVIÑO</text>
  <path d="M50 4 L92 22 L86 64 Q86 80 50 96 Q14 80 14 64 L8 22 Z" fill="none" stroke="#6F1D04" stroke-width="2"/>
</svg>
